<?xml version="1.0" encoding="UTF-8" standalone="no"?>
<!DOCTYPE svg PUBLIC "-//W3C//DTD SVG 20010904//EN" "http://www.w3.org/TR/2001/REC-SVG-20010904/DTD/svg10.dtd">
<svg version="1.0" xmlns="http://www.w3.org/2000/svg" width="400.000000pt" height="400.000000pt" viewBox="0 0 400.000000 400.000000" preserveAspectRatio="xMidYMid meet">
<metadata>
Zora
</metadata>
<g transform="translate(0.000000,400.000000) scale(0.100000,-0.100000)" fill="#000000" stroke="none">
<path d="M1835 3993 c-705 -72 -1294 -467 -1609 -1076 -157 -305 -225 -598 -220 -947 4 -324 70 -592 214 -876 50 -98 153 -266 185 -300 5 -7 26 -31 45 -55 45 -56 134 -152 184 -198 22 -20 44 -41 50 -46 25 -24 154 -124 201 -156 201 -136 539 -274 750 -304 22 -4 47 -8 55 -10 46 -12 154 -19 305 -19 182 -1 242 4 375 30 47 9 95 18 108 20 101 19 349 116 477 187 579 320 951 872 1032 1532 15 118 7 467 -12 535 -2 8 -7 35 -10 60 -4 24 -8 47 -10 50 -2 3 -6 21 -9 42 -12 77 -89 289 -150 413 -238 485 -651 848 -1162 1020 -43 15 -86 28 -94 30 -8 2 -46 11 -85 20 -38 9 -79 18 -90 20 -11 2 -37 6 -57 9 -21 3 -55 9 -75 12 -41 6 -349 12 -398 7z"/>
</g>
</svg>